<svg width="155" height="25" viewBox="0 0 155 25" fill="none" xmlns="http://www.w3.org/2000/svg">
<g clip-path="url(#clip0_0_32)">
<path d="M1.13945 0.750001C2.69325 0.857142 3.59101 1.71428 3.59101 3.21428V21.7857C3.59101 23.2857 2.69325 24.1428 1.17398 24.25L0 24.3215V25H9.80622V24.3215L8.5977 24.25C7.07843 24.1785 6.14615 23.2143 6.14615 21.6785V13.8572H9.97885C15.9178 13.8572 19.0945 10.0714 19.0945 6.39285C19.0945 3.03572 16.4358 0 11.1528 0H0V0.678572L1.13945 0.750001ZM9.39186 0.642857C13.708 0.642857 15.9868 3.67857 15.9868 6.89285C15.9868 10.0714 13.777 13.25 9.46092 13.25H6.14615V0.642857H9.39186Z" fill="#1F1E1E"/>
<path d="M21.3458 21.4643C20.7243 23 19.9647 23.9643 17.9275 24.3215V25H25.9037V24.3215C23.5558 24.3215 22.3127 23.75 22.3127 22.3928C22.3127 22 22.4163 21.5357 22.6234 21L24.488 16.2143H34.3978L36.4005 21.2857C36.5731 21.75 36.6768 22.1785 36.6768 22.5357C36.6768 23.75 35.6063 24.3215 33.362 24.3215V25H42.6848V24.3215C40.9583 24.1428 39.9915 23.3572 39.4736 22.0715L30.5305 0H29.9781L21.3458 21.4643ZM24.7642 15.5357L29.3912 3.78572L34.0871 15.5357H24.7642Z" fill="#1F1E1E"/>
<path d="M45.2784 0.750001C46.8323 0.857142 47.73 1.71428 47.73 3.21428V21.7857C47.73 23.2857 46.8323 24.1428 45.313 24.25L44.139 24.3215V25H62.9227L63.8896 16.8572H63.1644C62.1631 21.5715 60.0223 24.3215 56.0515 24.3215H53.1165C51.3901 24.3215 50.2852 23.2857 50.2852 21.7143V3.21428C50.2852 1.71428 51.2174 0.821428 52.7713 0.750001L54.1869 0.678572V0H44.139V0.678572L45.2784 0.750001Z" fill="#1F1E1E"/>
<path d="M67.1626 0.750001C68.7163 0.857142 69.614 1.71428 69.614 3.21428V21.7857C69.614 23.2857 68.7163 24.1428 67.1971 24.25L66.0231 24.3215V25H84.8067L85.7736 16.8572H85.0485C84.0471 21.5715 81.9063 24.3215 77.9355 24.3215H75.0006C73.2741 24.3215 72.1692 23.2857 72.1692 21.7143V12.6072H76.2781C79.006 12.6072 79.9037 13.8928 80.1108 16.7143H80.8359V7.85715H80.1108C79.9037 10.75 79.006 11.9285 76.2781 11.9285H72.1692V0.642857H78.2117C81.9409 0.642857 83.5983 3.10715 84.0471 6.82143H84.6341V0H66.0231V0.678572L67.1626 0.750001Z" fill="#1F1E1E"/>
<path d="M88.2065 6.82143H88.7935C89.5531 3.10715 91.2451 0.642857 94.6289 0.642857H97.8401V21.7857C97.8401 23.2857 96.9423 24.1785 95.423 24.25L93.9038 24.3215V25H104.366V24.3215L102.847 24.25C101.327 24.1785 100.395 23.2857 100.395 21.7857V0.642857H103.641C106.921 0.642857 108.682 3.07143 109.476 6.82143H110.063L109.649 0H88.6209L88.2065 6.82143Z" fill="#1F1E1E"/>
<path d="M111.642 6.82143H112.229C112.988 3.10715 114.68 0.642857 118.064 0.642857H121.276V21.7857C121.276 23.2857 120.377 24.1785 118.858 24.25L117.339 24.3215V25H127.801V24.3215L126.282 24.25C124.762 24.1785 123.831 23.2857 123.831 21.7857V0.642857H127.077C130.356 0.642857 132.118 3.07143 132.911 6.82143H133.498L133.084 0H112.056L111.642 6.82143Z" fill="#1F1E1E"/>
<path d="M136.389 0.750001C137.943 0.857142 138.84 1.71428 138.84 3.21428V21.7857C138.84 23.2857 137.943 24.1428 136.423 24.25L135.249 24.3215V25H154.034L155 16.8572H154.274C153.274 21.5715 151.133 24.3215 147.162 24.3215H144.228C142.5 24.3215 141.395 23.2857 141.395 21.7143V12.6072H145.505C148.233 12.6072 149.13 13.8928 149.338 16.7143H150.062V7.85715H149.338C149.13 10.75 148.233 11.9285 145.505 11.9285H141.395V0.642857H147.438C151.167 0.642857 152.824 3.10715 153.274 6.82143H153.861V0H135.249V0.678572L136.389 0.750001Z" fill="#1F1E1E"/>
</g>
<defs>
<clipPath id="clip0_0_32">
<rect width="155" height="25" fill="white"/>
</clipPath>
</defs>
</svg>
