<svg width="13" height="13" viewBox="0 0 13 13" fill="none" xmlns="http://www.w3.org/2000/svg">
<path d="M13.5273 6.375C12.344 7.125 11.219 8.05833 10.1523 9.175C9.0857 10.275 8.22734 11.3417 7.57734 12.375L6.55234 11.65C7.03568 10.8667 7.63568 10.075 8.35234 9.275C9.0523 8.475 9.8357 7.73333 10.7023 7.05L-0.847656 7.05L-0.847656 5.7L10.7023 5.7C9.8357 5.01667 9.0523 4.275 8.35234 3.475C7.63568 2.675 7.03568 1.8833 6.55234 1.1L7.57734 0.375C8.22734 1.4083 9.0857 2.4833 10.1523 3.6C11.219 4.7 12.344 5.625 13.5273 6.375Z" fill="#1F1E1E"/>
</svg>
